
<svg width="150" height="40" viewBox="0 0 150 40" fill="none" xmlns="http://www.w3.org/2000/svg">
  <path d="M18.144 31.3334L1.04401 6.16669H9.33601L21.392 23.6667L33.448 6.16669H41.74L24.64 31.3334H18.144Z" fill="#004085"/>
  <path d="M55.576 31.3334V6.16669H62.36V31.3334H55.576Z" fill="#004085"/>
  <path d="M76.444 31.3334L62.696 6.16669H70.38L79.892 24.0834L89.308 6.16669H96.992L83.244 31.3334H76.444Z" fill="#004085"/>
  <path d="M100.292 31.3334V6.16669H107.076V31.3334H100.292Z" fill="#004085"/>
  <path d="M110.796 31.3334V6.16669H117.18V24.8334L134.58 6.16669H141.58V31.3334H135.196V12.6667L117.796 31.3334H110.796Z" fill="#004085"/>
  <path d="M49.892 12.6667V6.16669H68.78V12.6667H49.892Z" fill="#0080FF"/>
</svg>
